<mxfile host="app.diagrams.net" modified="2023-11-24T12:14:51.290Z" agent="Mozilla/5.0 (Macintosh; Intel Mac OS X 10_15_7) AppleWebKit/537.36 (KHTML, like Gecko) Chrome/119.0.0.0 Safari/537.36 Edg/119.0.0.0" etag="ku3UTLH5sRKO4cgnJldm" version="22.1.3" type="github" pages="2">
  <diagram name="第 1 页" id="sGgewWgMvMaT2g3DQEy5">
    <mxGraphModel dx="1434" dy="796" grid="1" gridSize="10" guides="1" tooltips="1" connect="1" arrows="1" fold="1" page="1" pageScale="1" pageWidth="1169" pageHeight="1654" math="1" shadow="0">
      <root>
        <mxCell id="0" />
        <mxCell id="1" parent="0" />
        <mxCell id="M7qCVVP0nL5u_WBmV-me-67" value="" style="rounded=0;whiteSpace=wrap;html=1;dashed=1;fillColor=#f5f5f5;strokeColor=#666666;gradientColor=#b3b3b3;" parent="1" vertex="1">
          <mxGeometry x="220" y="290" width="570" height="120" as="geometry" />
        </mxCell>
        <mxCell id="M7qCVVP0nL5u_WBmV-me-68" value="" style="endArrow=none;html=1;rounded=0;fontSize=14;fontFamily=Times New Roman;" parent="1" edge="1">
          <mxGeometry width="50" height="50" relative="1" as="geometry">
            <mxPoint x="50" y="520" as="sourcePoint" />
            <mxPoint x="50" y="80" as="targetPoint" />
          </mxGeometry>
        </mxCell>
        <mxCell id="M7qCVVP0nL5u_WBmV-me-69" value="$$\varphi$$" style="text;html=1;strokeColor=none;fillColor=none;align=center;verticalAlign=middle;whiteSpace=wrap;rounded=0;fontFamily=Times New Roman;fontSize=14;" parent="1" vertex="1">
          <mxGeometry x="10" y="60" width="60" height="30" as="geometry" />
        </mxCell>
        <mxCell id="M7qCVVP0nL5u_WBmV-me-70" value="$$u_2$$" style="text;html=1;strokeColor=none;fillColor=none;align=center;verticalAlign=middle;whiteSpace=wrap;rounded=0;fontFamily=Times New Roman;fontSize=14;" parent="1" vertex="1">
          <mxGeometry x="10" y="110" width="60" height="30" as="geometry" />
        </mxCell>
        <mxCell id="M7qCVVP0nL5u_WBmV-me-71" value="$$u_1$$" style="text;html=1;strokeColor=none;fillColor=none;align=center;verticalAlign=middle;whiteSpace=wrap;rounded=0;fontFamily=Times New Roman;fontSize=14;" parent="1" vertex="1">
          <mxGeometry x="10" y="200" width="60" height="30" as="geometry" />
        </mxCell>
        <mxCell id="M7qCVVP0nL5u_WBmV-me-72" value="$$u_0$$" style="text;html=1;strokeColor=none;fillColor=none;align=center;verticalAlign=middle;whiteSpace=wrap;rounded=0;fontFamily=Times New Roman;fontSize=14;" parent="1" vertex="1">
          <mxGeometry x="10" y="290" width="60" height="30" as="geometry" />
        </mxCell>
        <mxCell id="M7qCVVP0nL5u_WBmV-me-73" style="edgeStyle=none;shape=connector;rounded=0;orthogonalLoop=1;jettySize=auto;html=1;exitX=0.5;exitY=0;exitDx=0;exitDy=0;labelBackgroundColor=default;strokeColor=default;align=center;verticalAlign=middle;fontFamily=Times New Roman;fontSize=14;fontColor=default;endArrow=classic;" parent="1" edge="1">
          <mxGeometry relative="1" as="geometry">
            <mxPoint x="341.5" y="120" as="sourcePoint" />
            <mxPoint x="341.5" y="120" as="targetPoint" />
          </mxGeometry>
        </mxCell>
        <mxCell id="M7qCVVP0nL5u_WBmV-me-74" style="edgeStyle=none;shape=connector;rounded=0;orthogonalLoop=1;jettySize=auto;html=1;exitX=0.5;exitY=1;exitDx=0;exitDy=0;entryX=0.5;entryY=0;entryDx=0;entryDy=0;labelBackgroundColor=default;strokeColor=default;align=center;verticalAlign=middle;fontFamily=Times New Roman;fontSize=14;fontColor=default;endArrow=classic;" parent="1" source="M7qCVVP0nL5u_WBmV-me-75" edge="1">
          <mxGeometry relative="1" as="geometry">
            <mxPoint x="425" y="200" as="targetPoint" />
          </mxGeometry>
        </mxCell>
        <mxCell id="M7qCVVP0nL5u_WBmV-me-75" value="$$v_{b_{1}}$$" style="ellipse;whiteSpace=wrap;html=1;aspect=fixed;fontFamily=Times New Roman;fontSize=14;fontColor=default;" parent="1" vertex="1">
          <mxGeometry x="410" y="110" width="30" height="30" as="geometry" />
        </mxCell>
        <mxCell id="M7qCVVP0nL5u_WBmV-me-76" style="edgeStyle=none;shape=connector;rounded=0;orthogonalLoop=1;jettySize=auto;html=1;exitX=0.5;exitY=1;exitDx=0;exitDy=0;entryX=0.5;entryY=0;entryDx=0;entryDy=0;labelBackgroundColor=default;strokeColor=default;align=center;verticalAlign=middle;fontFamily=Helvetica;fontSize=11;fontColor=default;endArrow=classic;" parent="1" source="M7qCVVP0nL5u_WBmV-me-81" target="M7qCVVP0nL5u_WBmV-me-88" edge="1">
          <mxGeometry relative="1" as="geometry" />
        </mxCell>
        <mxCell id="M7qCVVP0nL5u_WBmV-me-77" style="edgeStyle=none;shape=connector;rounded=0;orthogonalLoop=1;jettySize=auto;html=1;exitX=0.5;exitY=1;exitDx=0;exitDy=0;entryX=0.5;entryY=0;entryDx=0;entryDy=0;labelBackgroundColor=default;strokeColor=default;align=center;verticalAlign=middle;fontFamily=Helvetica;fontSize=11;fontColor=default;endArrow=classic;" parent="1" source="M7qCVVP0nL5u_WBmV-me-81" target="M7qCVVP0nL5u_WBmV-me-89" edge="1">
          <mxGeometry relative="1" as="geometry" />
        </mxCell>
        <mxCell id="M7qCVVP0nL5u_WBmV-me-78" style="edgeStyle=none;shape=connector;rounded=0;orthogonalLoop=1;jettySize=auto;html=1;exitX=0.5;exitY=1;exitDx=0;exitDy=0;entryX=0.5;entryY=0;entryDx=0;entryDy=0;labelBackgroundColor=default;strokeColor=default;align=center;verticalAlign=middle;fontFamily=Helvetica;fontSize=11;fontColor=default;endArrow=classic;" parent="1" source="M7qCVVP0nL5u_WBmV-me-81" target="M7qCVVP0nL5u_WBmV-me-114" edge="1">
          <mxGeometry relative="1" as="geometry" />
        </mxCell>
        <mxCell id="M7qCVVP0nL5u_WBmV-me-79" style="edgeStyle=none;shape=connector;rounded=0;orthogonalLoop=1;jettySize=auto;html=1;exitX=0.5;exitY=1;exitDx=0;exitDy=0;entryX=0.5;entryY=0;entryDx=0;entryDy=0;labelBackgroundColor=default;strokeColor=default;align=center;verticalAlign=middle;fontFamily=Helvetica;fontSize=11;fontColor=default;endArrow=classic;" parent="1" source="M7qCVVP0nL5u_WBmV-me-81" target="M7qCVVP0nL5u_WBmV-me-118" edge="1">
          <mxGeometry relative="1" as="geometry" />
        </mxCell>
        <mxCell id="M7qCVVP0nL5u_WBmV-me-80" style="edgeStyle=none;shape=connector;rounded=0;orthogonalLoop=1;jettySize=auto;html=1;exitX=0.5;exitY=1;exitDx=0;exitDy=0;entryX=0.5;entryY=0;entryDx=0;entryDy=0;labelBackgroundColor=default;strokeColor=default;align=center;verticalAlign=middle;fontFamily=Helvetica;fontSize=11;fontColor=default;endArrow=classic;" parent="1" source="M7qCVVP0nL5u_WBmV-me-81" target="M7qCVVP0nL5u_WBmV-me-122" edge="1">
          <mxGeometry relative="1" as="geometry" />
        </mxCell>
        <mxCell id="M7qCVVP0nL5u_WBmV-me-81" value="$$v_{a_{1}}$$" style="ellipse;whiteSpace=wrap;html=1;aspect=fixed;fontFamily=Times New Roman;fontSize=14;fontColor=default;" parent="1" vertex="1">
          <mxGeometry x="410" y="200" width="30" height="30" as="geometry" />
        </mxCell>
        <mxCell id="M7qCVVP0nL5u_WBmV-me-82" value="$$u_3$$" style="text;html=1;strokeColor=none;fillColor=none;align=center;verticalAlign=middle;whiteSpace=wrap;rounded=0;fontFamily=Times New Roman;fontSize=14;" parent="1" vertex="1">
          <mxGeometry x="10" y="380" width="60" height="30" as="geometry" />
        </mxCell>
        <mxCell id="M7qCVVP0nL5u_WBmV-me-84" value="" style="verticalLabelPosition=bottom;verticalAlign=top;html=1;shape=mxgraph.basic.x;fontFamily=Times New Roman;fontSize=14;fontColor=default;fillColor=#000000;" parent="1" vertex="1">
          <mxGeometry x="179.52" y="420" width="20" height="30" as="geometry" />
        </mxCell>
        <mxCell id="M7qCVVP0nL5u_WBmV-me-85" value="253" style="rounded=0;whiteSpace=wrap;html=1;fontSize=14;fontFamily=Times New Roman;" parent="1" vertex="1">
          <mxGeometry x="75" y="460" width="40" height="30" as="geometry" />
        </mxCell>
        <mxCell id="M7qCVVP0nL5u_WBmV-me-86" value="255" style="rounded=0;whiteSpace=wrap;html=1;fontSize=14;fontFamily=Times New Roman;" parent="1" vertex="1">
          <mxGeometry x="122.26" y="460" width="40" height="30" as="geometry" />
        </mxCell>
        <mxCell id="M7qCVVP0nL5u_WBmV-me-87" value="235" style="rounded=0;whiteSpace=wrap;html=1;fontSize=14;fontFamily=Times New Roman;" parent="1" vertex="1">
          <mxGeometry x="169.52" y="460" width="40" height="30" as="geometry" />
        </mxCell>
        <mxCell id="M7qCVVP0nL5u_WBmV-me-88" value="$$v_{a_{0}}$$" style="ellipse;whiteSpace=wrap;html=1;aspect=fixed;fontFamily=Times New Roman;fontSize=14;fontColor=default;" parent="1" vertex="1">
          <mxGeometry x="128.26027397260273" y="290" width="28" height="28" as="geometry" />
        </mxCell>
        <mxCell id="M7qCVVP0nL5u_WBmV-me-89" value="$$v_{a_{2}}$$" style="ellipse;whiteSpace=wrap;html=1;aspect=fixed;fontFamily=Times New Roman;fontSize=14;fontColor=default;" parent="1" vertex="1">
          <mxGeometry x="270.04109589041093" y="290" width="28" height="28" as="geometry" />
        </mxCell>
        <mxCell id="M7qCVVP0nL5u_WBmV-me-90" value="$$v_{c_{3}}$$" style="ellipse;whiteSpace=wrap;html=1;aspect=fixed;fontFamily=Times New Roman;fontSize=14;fontColor=default;" parent="1" vertex="1">
          <mxGeometry x="81" y="380" width="28" height="28" as="geometry" />
        </mxCell>
        <mxCell id="M7qCVVP0nL5u_WBmV-me-91" style="edgeStyle=none;shape=connector;rounded=0;orthogonalLoop=1;jettySize=auto;html=1;exitX=0.5;exitY=1;exitDx=0;exitDy=0;entryX=0.5;entryY=0;entryDx=0;entryDy=0;labelBackgroundColor=default;strokeColor=default;align=center;verticalAlign=middle;fontFamily=Times New Roman;fontSize=14;fontColor=default;endArrow=classic;" parent="1" source="M7qCVVP0nL5u_WBmV-me-88" target="M7qCVVP0nL5u_WBmV-me-90" edge="1">
          <mxGeometry relative="1" as="geometry" />
        </mxCell>
        <mxCell id="M7qCVVP0nL5u_WBmV-me-92" value="$$v_{c_{2}}$$" style="ellipse;whiteSpace=wrap;html=1;aspect=fixed;fontFamily=Times New Roman;fontSize=14;fontColor=default;" parent="1" vertex="1">
          <mxGeometry x="128.26027397260273" y="380" width="28" height="28" as="geometry" />
        </mxCell>
        <mxCell id="M7qCVVP0nL5u_WBmV-me-93" style="edgeStyle=none;shape=connector;rounded=0;orthogonalLoop=1;jettySize=auto;html=1;exitX=0.5;exitY=1;exitDx=0;exitDy=0;entryX=0.5;entryY=0;entryDx=0;entryDy=0;labelBackgroundColor=default;strokeColor=default;align=center;verticalAlign=middle;fontFamily=Times New Roman;fontSize=14;fontColor=default;endArrow=classic;" parent="1" source="M7qCVVP0nL5u_WBmV-me-88" target="M7qCVVP0nL5u_WBmV-me-92" edge="1">
          <mxGeometry relative="1" as="geometry" />
        </mxCell>
        <mxCell id="M7qCVVP0nL5u_WBmV-me-94" value="$$v_{c_{1}}$$" style="ellipse;whiteSpace=wrap;html=1;aspect=fixed;fontFamily=Times New Roman;fontSize=14;fontColor=default;" parent="1" vertex="1">
          <mxGeometry x="175.52054794520546" y="380" width="28" height="28" as="geometry" />
        </mxCell>
        <mxCell id="M7qCVVP0nL5u_WBmV-me-95" style="edgeStyle=none;shape=connector;rounded=0;orthogonalLoop=1;jettySize=auto;html=1;exitX=0.5;exitY=1;exitDx=0;exitDy=0;entryX=0.5;entryY=0;entryDx=0;entryDy=0;labelBackgroundColor=default;strokeColor=default;align=center;verticalAlign=middle;fontFamily=Times New Roman;fontSize=14;fontColor=default;endArrow=classic;" parent="1" source="M7qCVVP0nL5u_WBmV-me-88" target="M7qCVVP0nL5u_WBmV-me-94" edge="1">
          <mxGeometry relative="1" as="geometry" />
        </mxCell>
        <mxCell id="M7qCVVP0nL5u_WBmV-me-96" value="$$v_{c_{3}}$$" style="ellipse;whiteSpace=wrap;html=1;aspect=fixed;fontFamily=Times New Roman;fontSize=14;fontColor=default;" parent="1" vertex="1">
          <mxGeometry x="222.78082191780823" y="380" width="28" height="28" as="geometry" />
        </mxCell>
        <mxCell id="M7qCVVP0nL5u_WBmV-me-97" style="edgeStyle=none;shape=connector;rounded=0;orthogonalLoop=1;jettySize=auto;html=1;exitX=0.5;exitY=1;exitDx=0;exitDy=0;entryX=0.5;entryY=0;entryDx=0;entryDy=0;labelBackgroundColor=default;strokeColor=default;align=center;verticalAlign=middle;fontFamily=Times New Roman;fontSize=14;fontColor=default;endArrow=classic;" parent="1" source="M7qCVVP0nL5u_WBmV-me-89" target="M7qCVVP0nL5u_WBmV-me-96" edge="1">
          <mxGeometry relative="1" as="geometry" />
        </mxCell>
        <mxCell id="M7qCVVP0nL5u_WBmV-me-98" value="$$v_{c_{2}}$$" style="ellipse;whiteSpace=wrap;html=1;aspect=fixed;fontFamily=Times New Roman;fontSize=14;fontColor=default;" parent="1" vertex="1">
          <mxGeometry x="270.04109589041093" y="380" width="28" height="28" as="geometry" />
        </mxCell>
        <mxCell id="M7qCVVP0nL5u_WBmV-me-99" style="edgeStyle=none;shape=connector;rounded=0;orthogonalLoop=1;jettySize=auto;html=1;exitX=0.5;exitY=1;exitDx=0;exitDy=0;entryX=0.5;entryY=0;entryDx=0;entryDy=0;labelBackgroundColor=default;strokeColor=default;align=center;verticalAlign=middle;fontFamily=Times New Roman;fontSize=14;fontColor=default;endArrow=classic;" parent="1" source="M7qCVVP0nL5u_WBmV-me-89" target="M7qCVVP0nL5u_WBmV-me-98" edge="1">
          <mxGeometry relative="1" as="geometry" />
        </mxCell>
        <mxCell id="M7qCVVP0nL5u_WBmV-me-100" value="$$v_{c_{1}}$$" style="ellipse;whiteSpace=wrap;html=1;aspect=fixed;fontFamily=Times New Roman;fontSize=14;fontColor=default;" parent="1" vertex="1">
          <mxGeometry x="317.3013698630137" y="380" width="28" height="28" as="geometry" />
        </mxCell>
        <mxCell id="M7qCVVP0nL5u_WBmV-me-101" style="edgeStyle=none;shape=connector;rounded=0;orthogonalLoop=1;jettySize=auto;html=1;exitX=0.5;exitY=1;exitDx=0;exitDy=0;entryX=0.5;entryY=0;entryDx=0;entryDy=0;labelBackgroundColor=default;strokeColor=default;align=center;verticalAlign=middle;fontFamily=Times New Roman;fontSize=14;fontColor=default;endArrow=classic;" parent="1" source="M7qCVVP0nL5u_WBmV-me-89" target="M7qCVVP0nL5u_WBmV-me-100" edge="1">
          <mxGeometry relative="1" as="geometry" />
        </mxCell>
        <mxCell id="M7qCVVP0nL5u_WBmV-me-102" value="$$v_{c_{3}}$$" style="ellipse;whiteSpace=wrap;html=1;aspect=fixed;fontFamily=Times New Roman;fontSize=14;fontColor=default;" parent="1" vertex="1">
          <mxGeometry x="364.56164383561645" y="380" width="28" height="28" as="geometry" />
        </mxCell>
        <mxCell id="M7qCVVP0nL5u_WBmV-me-103" value="$$v_{c_{2}}$$" style="ellipse;whiteSpace=wrap;html=1;aspect=fixed;fontFamily=Times New Roman;fontSize=14;fontColor=default;" parent="1" vertex="1">
          <mxGeometry x="411.82191780821915" y="380" width="28" height="28" as="geometry" />
        </mxCell>
        <mxCell id="M7qCVVP0nL5u_WBmV-me-104" value="$$v_{c_{1}}$$" style="ellipse;whiteSpace=wrap;html=1;aspect=fixed;fontFamily=Times New Roman;fontSize=14;fontColor=default;" parent="1" vertex="1">
          <mxGeometry x="459.0821917808219" y="380" width="28" height="28" as="geometry" />
        </mxCell>
        <mxCell id="M7qCVVP0nL5u_WBmV-me-105" value="$$v_{c_{3}}$$" style="ellipse;whiteSpace=wrap;html=1;aspect=fixed;fontFamily=Times New Roman;fontSize=14;fontColor=default;" parent="1" vertex="1">
          <mxGeometry x="506.3424657534247" y="380" width="28" height="28" as="geometry" />
        </mxCell>
        <mxCell id="M7qCVVP0nL5u_WBmV-me-106" value="$$v_{c_{2}}$$" style="ellipse;whiteSpace=wrap;html=1;aspect=fixed;fontFamily=Times New Roman;fontSize=14;fontColor=default;" parent="1" vertex="1">
          <mxGeometry x="553.6027397260274" y="380" width="28" height="28" as="geometry" />
        </mxCell>
        <mxCell id="M7qCVVP0nL5u_WBmV-me-107" value="$$v_{c_{1}}$$" style="ellipse;whiteSpace=wrap;html=1;aspect=fixed;fontFamily=Times New Roman;fontSize=14;fontColor=default;" parent="1" vertex="1">
          <mxGeometry x="600.8630136986301" y="380" width="28" height="28" as="geometry" />
        </mxCell>
        <mxCell id="M7qCVVP0nL5u_WBmV-me-108" value="$$v_{c_{3}}$$" style="ellipse;whiteSpace=wrap;html=1;aspect=fixed;fontFamily=Times New Roman;fontSize=14;fontColor=default;" parent="1" vertex="1">
          <mxGeometry x="648.1232876712329" y="380" width="28" height="28" as="geometry" />
        </mxCell>
        <mxCell id="M7qCVVP0nL5u_WBmV-me-109" value="$$v_{c_{2}}$$" style="ellipse;whiteSpace=wrap;html=1;aspect=fixed;fontFamily=Times New Roman;fontSize=14;fontColor=default;" parent="1" vertex="1">
          <mxGeometry x="695.3835616438356" y="380" width="28" height="28" as="geometry" />
        </mxCell>
        <mxCell id="M7qCVVP0nL5u_WBmV-me-110" value="$$v_{c_{1}}$$" style="ellipse;whiteSpace=wrap;html=1;aspect=fixed;fontFamily=Times New Roman;fontSize=14;fontColor=default;" parent="1" vertex="1">
          <mxGeometry x="742.6438356164383" y="380" width="28" height="28" as="geometry" />
        </mxCell>
        <mxCell id="M7qCVVP0nL5u_WBmV-me-111" style="edgeStyle=none;shape=connector;rounded=0;orthogonalLoop=1;jettySize=auto;html=1;exitX=0.5;exitY=1;exitDx=0;exitDy=0;entryX=0.5;entryY=0;entryDx=0;entryDy=0;labelBackgroundColor=default;strokeColor=default;align=center;verticalAlign=middle;fontFamily=Times New Roman;fontSize=14;fontColor=default;endArrow=classic;" parent="1" source="M7qCVVP0nL5u_WBmV-me-114" target="M7qCVVP0nL5u_WBmV-me-102" edge="1">
          <mxGeometry relative="1" as="geometry" />
        </mxCell>
        <mxCell id="M7qCVVP0nL5u_WBmV-me-112" style="edgeStyle=none;shape=connector;rounded=0;orthogonalLoop=1;jettySize=auto;html=1;exitX=0.5;exitY=1;exitDx=0;exitDy=0;entryX=0.5;entryY=0;entryDx=0;entryDy=0;labelBackgroundColor=default;strokeColor=default;align=center;verticalAlign=middle;fontFamily=Times New Roman;fontSize=14;fontColor=default;endArrow=classic;" parent="1" source="M7qCVVP0nL5u_WBmV-me-114" target="M7qCVVP0nL5u_WBmV-me-103" edge="1">
          <mxGeometry relative="1" as="geometry" />
        </mxCell>
        <mxCell id="M7qCVVP0nL5u_WBmV-me-113" style="edgeStyle=none;shape=connector;rounded=0;orthogonalLoop=1;jettySize=auto;html=1;exitX=0.5;exitY=1;exitDx=0;exitDy=0;entryX=0.5;entryY=0;entryDx=0;entryDy=0;labelBackgroundColor=default;strokeColor=default;align=center;verticalAlign=middle;fontFamily=Times New Roman;fontSize=14;fontColor=default;endArrow=classic;" parent="1" source="M7qCVVP0nL5u_WBmV-me-114" target="M7qCVVP0nL5u_WBmV-me-104" edge="1">
          <mxGeometry relative="1" as="geometry" />
        </mxCell>
        <mxCell id="M7qCVVP0nL5u_WBmV-me-114" value="$$v_{a_{3}}$$" style="ellipse;whiteSpace=wrap;html=1;aspect=fixed;fontFamily=Times New Roman;fontSize=14;fontColor=default;" parent="1" vertex="1">
          <mxGeometry x="410" y="290" width="28" height="28" as="geometry" />
        </mxCell>
        <mxCell id="M7qCVVP0nL5u_WBmV-me-115" style="edgeStyle=none;shape=connector;rounded=0;orthogonalLoop=1;jettySize=auto;html=1;exitX=0.5;exitY=1;exitDx=0;exitDy=0;entryX=0.5;entryY=0;entryDx=0;entryDy=0;labelBackgroundColor=default;strokeColor=default;align=center;verticalAlign=middle;fontFamily=Times New Roman;fontSize=14;fontColor=default;endArrow=classic;" parent="1" source="M7qCVVP0nL5u_WBmV-me-118" target="M7qCVVP0nL5u_WBmV-me-105" edge="1">
          <mxGeometry relative="1" as="geometry" />
        </mxCell>
        <mxCell id="M7qCVVP0nL5u_WBmV-me-116" style="edgeStyle=none;shape=connector;rounded=0;orthogonalLoop=1;jettySize=auto;html=1;exitX=0.5;exitY=1;exitDx=0;exitDy=0;entryX=0.5;entryY=0;entryDx=0;entryDy=0;labelBackgroundColor=default;strokeColor=default;align=center;verticalAlign=middle;fontFamily=Times New Roman;fontSize=14;fontColor=default;endArrow=classic;" parent="1" source="M7qCVVP0nL5u_WBmV-me-118" target="M7qCVVP0nL5u_WBmV-me-106" edge="1">
          <mxGeometry relative="1" as="geometry" />
        </mxCell>
        <mxCell id="M7qCVVP0nL5u_WBmV-me-117" style="edgeStyle=none;shape=connector;rounded=0;orthogonalLoop=1;jettySize=auto;html=1;exitX=0.5;exitY=1;exitDx=0;exitDy=0;entryX=0.5;entryY=0;entryDx=0;entryDy=0;labelBackgroundColor=default;strokeColor=default;align=center;verticalAlign=middle;fontFamily=Times New Roman;fontSize=14;fontColor=default;endArrow=classic;" parent="1" source="M7qCVVP0nL5u_WBmV-me-118" target="M7qCVVP0nL5u_WBmV-me-107" edge="1">
          <mxGeometry relative="1" as="geometry" />
        </mxCell>
        <mxCell id="M7qCVVP0nL5u_WBmV-me-118" value="$$v_{a_{4}}$$" style="ellipse;whiteSpace=wrap;html=1;aspect=fixed;fontFamily=Times New Roman;fontSize=14;fontColor=default;" parent="1" vertex="1">
          <mxGeometry x="553.6027397260274" y="290" width="28" height="28" as="geometry" />
        </mxCell>
        <mxCell id="M7qCVVP0nL5u_WBmV-me-119" style="edgeStyle=none;shape=connector;rounded=0;orthogonalLoop=1;jettySize=auto;html=1;exitX=0.5;exitY=1;exitDx=0;exitDy=0;entryX=0.5;entryY=0;entryDx=0;entryDy=0;labelBackgroundColor=default;strokeColor=default;align=center;verticalAlign=middle;fontFamily=Times New Roman;fontSize=14;fontColor=default;endArrow=classic;" parent="1" source="M7qCVVP0nL5u_WBmV-me-122" target="M7qCVVP0nL5u_WBmV-me-108" edge="1">
          <mxGeometry relative="1" as="geometry" />
        </mxCell>
        <mxCell id="M7qCVVP0nL5u_WBmV-me-120" style="edgeStyle=none;shape=connector;rounded=0;orthogonalLoop=1;jettySize=auto;html=1;exitX=0.5;exitY=1;exitDx=0;exitDy=0;entryX=0.5;entryY=0;entryDx=0;entryDy=0;labelBackgroundColor=default;strokeColor=default;align=center;verticalAlign=middle;fontFamily=Times New Roman;fontSize=14;fontColor=default;endArrow=classic;" parent="1" source="M7qCVVP0nL5u_WBmV-me-122" target="M7qCVVP0nL5u_WBmV-me-109" edge="1">
          <mxGeometry relative="1" as="geometry" />
        </mxCell>
        <mxCell id="M7qCVVP0nL5u_WBmV-me-121" style="edgeStyle=none;shape=connector;rounded=0;orthogonalLoop=1;jettySize=auto;html=1;exitX=0.5;exitY=1;exitDx=0;exitDy=0;entryX=0.5;entryY=0;entryDx=0;entryDy=0;labelBackgroundColor=default;strokeColor=default;align=center;verticalAlign=middle;fontFamily=Times New Roman;fontSize=14;fontColor=default;endArrow=classic;" parent="1" source="M7qCVVP0nL5u_WBmV-me-122" target="M7qCVVP0nL5u_WBmV-me-110" edge="1">
          <mxGeometry relative="1" as="geometry" />
        </mxCell>
        <mxCell id="M7qCVVP0nL5u_WBmV-me-122" value="$$v_{a_{1003}}$$" style="ellipse;whiteSpace=wrap;html=1;aspect=fixed;fontFamily=Times New Roman;fontSize=14;fontColor=default;" parent="1" vertex="1">
          <mxGeometry x="695.3835616438356" y="290" width="28" height="28" as="geometry" />
        </mxCell>
        <mxCell id="M7qCVVP0nL5u_WBmV-me-123" value="......" style="text;html=1;strokeColor=none;fillColor=none;align=center;verticalAlign=middle;whiteSpace=wrap;rounded=0;fontSize=14;fontFamily=Times New Roman;fontColor=default;" parent="1" vertex="1">
          <mxGeometry x="618.2849315068494" y="290" width="56.71232876712329" height="28" as="geometry" />
        </mxCell>
        <mxCell id="M7qCVVP0nL5u_WBmV-me-124" value="" style="verticalLabelPosition=bottom;verticalAlign=top;html=1;shape=mxgraph.basic.tick;fontFamily=Times New Roman;fontSize=14;fontColor=#000000;fillColor=#ff0000;" parent="1" vertex="1">
          <mxGeometry x="85" y="420" width="20" height="30" as="geometry" />
        </mxCell>
        <mxCell id="M7qCVVP0nL5u_WBmV-me-125" value="$$den(g_3)=238$$" style="text;html=1;strokeColor=none;fillColor=none;align=center;verticalAlign=middle;whiteSpace=wrap;rounded=0;fontSize=16;fontFamily=Times New Roman;fontColor=default;" parent="1" vertex="1">
          <mxGeometry x="209.51999999999998" y="190" width="90" height="40" as="geometry" />
        </mxCell>
        <mxCell id="M7qCVVP0nL5u_WBmV-me-126" value="60" style="text;html=1;strokeColor=none;fillColor=none;align=center;verticalAlign=middle;whiteSpace=wrap;rounded=0;fontFamily=Times New Roman;fontSize=14;" parent="1" vertex="1">
          <mxGeometry x="365" y="200" width="60" height="30" as="geometry" />
        </mxCell>
        <mxCell id="M7qCVVP0nL5u_WBmV-me-127" value="180" style="text;html=1;strokeColor=none;fillColor=none;align=center;verticalAlign=middle;whiteSpace=wrap;rounded=0;fontFamily=Times New Roman;fontSize=14;" parent="1" vertex="1">
          <mxGeometry x="81" y="290" width="60" height="30" as="geometry" />
        </mxCell>
        <mxCell id="M7qCVVP0nL5u_WBmV-me-128" value="139" style="text;html=1;strokeColor=none;fillColor=none;align=center;verticalAlign=middle;whiteSpace=wrap;rounded=0;fontFamily=Times New Roman;fontSize=14;" parent="1" vertex="1">
          <mxGeometry x="222.78" y="290" width="60" height="30" as="geometry" />
        </mxCell>
        <mxCell id="M7qCVVP0nL5u_WBmV-me-129" value="113" style="text;html=1;strokeColor=none;fillColor=none;align=center;verticalAlign=middle;whiteSpace=wrap;rounded=0;fontFamily=Times New Roman;fontSize=14;" parent="1" vertex="1">
          <mxGeometry x="364.56" y="290" width="60" height="30" as="geometry" />
        </mxCell>
        <mxCell id="M7qCVVP0nL5u_WBmV-me-130" value="62" style="text;html=1;strokeColor=none;fillColor=none;align=center;verticalAlign=middle;whiteSpace=wrap;rounded=0;fontFamily=Times New Roman;fontSize=14;" parent="1" vertex="1">
          <mxGeometry x="508.34000000000003" y="289" width="60" height="30" as="geometry" />
        </mxCell>
        <mxCell id="M7qCVVP0nL5u_WBmV-me-131" value="62" style="text;html=1;strokeColor=none;fillColor=none;align=center;verticalAlign=middle;whiteSpace=wrap;rounded=0;fontFamily=Times New Roman;fontSize=14;" parent="1" vertex="1">
          <mxGeometry x="650.12" y="290" width="60" height="30" as="geometry" />
        </mxCell>
        <mxCell id="tzvzOP8MEuZk-hM6orMa-1" value="" style="verticalLabelPosition=bottom;verticalAlign=top;html=1;shape=mxgraph.basic.tick;fontFamily=Times New Roman;fontSize=14;fontColor=#000000;fillColor=#ff0000;" parent="1" vertex="1">
          <mxGeometry x="132.26" y="420" width="20" height="30" as="geometry" />
        </mxCell>
      </root>
    </mxGraphModel>
  </diagram>
  <diagram id="44BEzBOjOS1n28aRkl7p" name="第 2 页">
    <mxGraphModel dx="1434" dy="796" grid="1" gridSize="10" guides="1" tooltips="1" connect="1" arrows="1" fold="1" page="1" pageScale="1" pageWidth="4681" pageHeight="3300" math="1" shadow="0">
      <root>
        <mxCell id="0" />
        <mxCell id="1" parent="0" />
        <mxCell id="c09KHZvXeTK4_-JIclHb-66" value="" style="rounded=0;whiteSpace=wrap;html=1;dashed=1;fillColor=#f5f5f5;strokeColor=#666666;gradientColor=#b3b3b3;" vertex="1" parent="1">
          <mxGeometry x="222.77999999999992" y="290" width="263.66" height="120" as="geometry" />
        </mxCell>
        <mxCell id="c09KHZvXeTK4_-JIclHb-1" value="" style="rounded=0;whiteSpace=wrap;html=1;dashed=1;fillColor=#f5f5f5;strokeColor=#666666;gradientColor=#b3b3b3;" vertex="1" parent="1">
          <mxGeometry x="506.34" y="288" width="263.66" height="120" as="geometry" />
        </mxCell>
        <mxCell id="c09KHZvXeTK4_-JIclHb-2" value="" style="endArrow=none;html=1;rounded=0;fontSize=14;fontFamily=Times New Roman;" edge="1" parent="1">
          <mxGeometry width="50" height="50" relative="1" as="geometry">
            <mxPoint x="50" y="520" as="sourcePoint" />
            <mxPoint x="50" y="80" as="targetPoint" />
          </mxGeometry>
        </mxCell>
        <mxCell id="c09KHZvXeTK4_-JIclHb-3" value="$$\varphi$$" style="text;html=1;strokeColor=none;fillColor=none;align=center;verticalAlign=middle;whiteSpace=wrap;rounded=0;fontFamily=Times New Roman;fontSize=14;" vertex="1" parent="1">
          <mxGeometry x="10" y="60" width="60" height="30" as="geometry" />
        </mxCell>
        <mxCell id="c09KHZvXeTK4_-JIclHb-4" value="$$u_2$$" style="text;html=1;strokeColor=none;fillColor=none;align=center;verticalAlign=middle;whiteSpace=wrap;rounded=0;fontFamily=Times New Roman;fontSize=14;" vertex="1" parent="1">
          <mxGeometry x="10" y="110" width="60" height="30" as="geometry" />
        </mxCell>
        <mxCell id="c09KHZvXeTK4_-JIclHb-5" value="$$u_1$$" style="text;html=1;strokeColor=none;fillColor=none;align=center;verticalAlign=middle;whiteSpace=wrap;rounded=0;fontFamily=Times New Roman;fontSize=14;" vertex="1" parent="1">
          <mxGeometry x="10" y="200" width="60" height="30" as="geometry" />
        </mxCell>
        <mxCell id="c09KHZvXeTK4_-JIclHb-6" value="$$u_0$$" style="text;html=1;strokeColor=none;fillColor=none;align=center;verticalAlign=middle;whiteSpace=wrap;rounded=0;fontFamily=Times New Roman;fontSize=14;" vertex="1" parent="1">
          <mxGeometry x="10" y="290" width="60" height="30" as="geometry" />
        </mxCell>
        <mxCell id="c09KHZvXeTK4_-JIclHb-7" style="edgeStyle=none;shape=connector;rounded=0;orthogonalLoop=1;jettySize=auto;html=1;exitX=0.5;exitY=0;exitDx=0;exitDy=0;labelBackgroundColor=default;strokeColor=default;align=center;verticalAlign=middle;fontFamily=Times New Roman;fontSize=14;fontColor=default;endArrow=classic;" edge="1" parent="1">
          <mxGeometry relative="1" as="geometry">
            <mxPoint x="341.5" y="120" as="sourcePoint" />
            <mxPoint x="341.5" y="120" as="targetPoint" />
          </mxGeometry>
        </mxCell>
        <mxCell id="c09KHZvXeTK4_-JIclHb-8" style="edgeStyle=none;shape=connector;rounded=0;orthogonalLoop=1;jettySize=auto;html=1;exitX=0.5;exitY=1;exitDx=0;exitDy=0;entryX=0.5;entryY=0;entryDx=0;entryDy=0;labelBackgroundColor=default;strokeColor=default;align=center;verticalAlign=middle;fontFamily=Times New Roman;fontSize=14;fontColor=default;endArrow=classic;" edge="1" parent="1" source="c09KHZvXeTK4_-JIclHb-9">
          <mxGeometry relative="1" as="geometry">
            <mxPoint x="425" y="200" as="targetPoint" />
          </mxGeometry>
        </mxCell>
        <mxCell id="c09KHZvXeTK4_-JIclHb-9" value="$$v_{b_{1}}$$" style="ellipse;whiteSpace=wrap;html=1;aspect=fixed;fontFamily=Times New Roman;fontSize=14;fontColor=default;" vertex="1" parent="1">
          <mxGeometry x="410" y="110" width="30" height="30" as="geometry" />
        </mxCell>
        <mxCell id="c09KHZvXeTK4_-JIclHb-10" style="edgeStyle=none;shape=connector;rounded=0;orthogonalLoop=1;jettySize=auto;html=1;exitX=0.5;exitY=1;exitDx=0;exitDy=0;entryX=0.5;entryY=0;entryDx=0;entryDy=0;labelBackgroundColor=default;strokeColor=default;align=center;verticalAlign=middle;fontFamily=Helvetica;fontSize=11;fontColor=default;endArrow=classic;" edge="1" parent="1" source="c09KHZvXeTK4_-JIclHb-15" target="c09KHZvXeTK4_-JIclHb-21">
          <mxGeometry relative="1" as="geometry" />
        </mxCell>
        <mxCell id="c09KHZvXeTK4_-JIclHb-11" style="edgeStyle=none;shape=connector;rounded=0;orthogonalLoop=1;jettySize=auto;html=1;exitX=0.5;exitY=1;exitDx=0;exitDy=0;entryX=0.5;entryY=0;entryDx=0;entryDy=0;labelBackgroundColor=default;strokeColor=default;align=center;verticalAlign=middle;fontFamily=Helvetica;fontSize=11;fontColor=default;endArrow=classic;" edge="1" parent="1" source="c09KHZvXeTK4_-JIclHb-15" target="c09KHZvXeTK4_-JIclHb-22">
          <mxGeometry relative="1" as="geometry" />
        </mxCell>
        <mxCell id="c09KHZvXeTK4_-JIclHb-12" style="edgeStyle=none;shape=connector;rounded=0;orthogonalLoop=1;jettySize=auto;html=1;exitX=0.5;exitY=1;exitDx=0;exitDy=0;entryX=0.5;entryY=0;entryDx=0;entryDy=0;labelBackgroundColor=default;strokeColor=default;align=center;verticalAlign=middle;fontFamily=Helvetica;fontSize=11;fontColor=default;endArrow=classic;" edge="1" parent="1" source="c09KHZvXeTK4_-JIclHb-15" target="c09KHZvXeTK4_-JIclHb-47">
          <mxGeometry relative="1" as="geometry" />
        </mxCell>
        <mxCell id="c09KHZvXeTK4_-JIclHb-13" style="edgeStyle=none;shape=connector;rounded=0;orthogonalLoop=1;jettySize=auto;html=1;exitX=0.5;exitY=1;exitDx=0;exitDy=0;entryX=0.5;entryY=0;entryDx=0;entryDy=0;labelBackgroundColor=default;strokeColor=default;align=center;verticalAlign=middle;fontFamily=Helvetica;fontSize=11;fontColor=default;endArrow=classic;" edge="1" parent="1" source="c09KHZvXeTK4_-JIclHb-15" target="c09KHZvXeTK4_-JIclHb-51">
          <mxGeometry relative="1" as="geometry" />
        </mxCell>
        <mxCell id="c09KHZvXeTK4_-JIclHb-14" style="edgeStyle=none;shape=connector;rounded=0;orthogonalLoop=1;jettySize=auto;html=1;exitX=0.5;exitY=1;exitDx=0;exitDy=0;entryX=0.5;entryY=0;entryDx=0;entryDy=0;labelBackgroundColor=default;strokeColor=default;align=center;verticalAlign=middle;fontFamily=Helvetica;fontSize=11;fontColor=default;endArrow=classic;" edge="1" parent="1" source="c09KHZvXeTK4_-JIclHb-15" target="c09KHZvXeTK4_-JIclHb-55">
          <mxGeometry relative="1" as="geometry" />
        </mxCell>
        <mxCell id="c09KHZvXeTK4_-JIclHb-15" value="$$v_{a_{1}}$$" style="ellipse;whiteSpace=wrap;html=1;aspect=fixed;fontFamily=Times New Roman;fontSize=14;fontColor=default;" vertex="1" parent="1">
          <mxGeometry x="410" y="200" width="30" height="30" as="geometry" />
        </mxCell>
        <mxCell id="c09KHZvXeTK4_-JIclHb-16" value="$$u_3$$" style="text;html=1;strokeColor=none;fillColor=none;align=center;verticalAlign=middle;whiteSpace=wrap;rounded=0;fontFamily=Times New Roman;fontSize=14;" vertex="1" parent="1">
          <mxGeometry x="10" y="380" width="60" height="30" as="geometry" />
        </mxCell>
        <mxCell id="c09KHZvXeTK4_-JIclHb-17" value="" style="verticalLabelPosition=bottom;verticalAlign=top;html=1;shape=mxgraph.basic.x;fontFamily=Times New Roman;fontSize=14;fontColor=default;fillColor=#000000;" vertex="1" parent="1">
          <mxGeometry x="179.52" y="420" width="20" height="30" as="geometry" />
        </mxCell>
        <mxCell id="c09KHZvXeTK4_-JIclHb-18" value="253" style="rounded=0;whiteSpace=wrap;html=1;fontSize=14;fontFamily=Times New Roman;" vertex="1" parent="1">
          <mxGeometry x="75" y="460" width="40" height="30" as="geometry" />
        </mxCell>
        <mxCell id="c09KHZvXeTK4_-JIclHb-19" value="255" style="rounded=0;whiteSpace=wrap;html=1;fontSize=14;fontFamily=Times New Roman;" vertex="1" parent="1">
          <mxGeometry x="122.26" y="460" width="40" height="30" as="geometry" />
        </mxCell>
        <mxCell id="c09KHZvXeTK4_-JIclHb-20" value="235" style="rounded=0;whiteSpace=wrap;html=1;fontSize=14;fontFamily=Times New Roman;" vertex="1" parent="1">
          <mxGeometry x="169.52" y="460" width="40" height="30" as="geometry" />
        </mxCell>
        <mxCell id="c09KHZvXeTK4_-JIclHb-21" value="$$v_{a_{0}}$$" style="ellipse;whiteSpace=wrap;html=1;aspect=fixed;fontFamily=Times New Roman;fontSize=14;fontColor=default;" vertex="1" parent="1">
          <mxGeometry x="128.26027397260273" y="290" width="28" height="28" as="geometry" />
        </mxCell>
        <mxCell id="c09KHZvXeTK4_-JIclHb-22" value="$$v_{a_{2}}$$" style="ellipse;whiteSpace=wrap;html=1;aspect=fixed;fontFamily=Times New Roman;fontSize=14;fontColor=default;" vertex="1" parent="1">
          <mxGeometry x="270.04109589041093" y="290" width="28" height="28" as="geometry" />
        </mxCell>
        <mxCell id="c09KHZvXeTK4_-JIclHb-23" value="$$v_{c_{3}}$$" style="ellipse;whiteSpace=wrap;html=1;aspect=fixed;fontFamily=Times New Roman;fontSize=14;fontColor=default;" vertex="1" parent="1">
          <mxGeometry x="81" y="380" width="28" height="28" as="geometry" />
        </mxCell>
        <mxCell id="c09KHZvXeTK4_-JIclHb-24" style="edgeStyle=none;shape=connector;rounded=0;orthogonalLoop=1;jettySize=auto;html=1;exitX=0.5;exitY=1;exitDx=0;exitDy=0;entryX=0.5;entryY=0;entryDx=0;entryDy=0;labelBackgroundColor=default;strokeColor=default;align=center;verticalAlign=middle;fontFamily=Times New Roman;fontSize=14;fontColor=default;endArrow=classic;" edge="1" parent="1" source="c09KHZvXeTK4_-JIclHb-21" target="c09KHZvXeTK4_-JIclHb-23">
          <mxGeometry relative="1" as="geometry" />
        </mxCell>
        <mxCell id="c09KHZvXeTK4_-JIclHb-25" value="$$v_{c_{2}}$$" style="ellipse;whiteSpace=wrap;html=1;aspect=fixed;fontFamily=Times New Roman;fontSize=14;fontColor=default;" vertex="1" parent="1">
          <mxGeometry x="128.26027397260273" y="380" width="28" height="28" as="geometry" />
        </mxCell>
        <mxCell id="c09KHZvXeTK4_-JIclHb-26" style="edgeStyle=none;shape=connector;rounded=0;orthogonalLoop=1;jettySize=auto;html=1;exitX=0.5;exitY=1;exitDx=0;exitDy=0;entryX=0.5;entryY=0;entryDx=0;entryDy=0;labelBackgroundColor=default;strokeColor=default;align=center;verticalAlign=middle;fontFamily=Times New Roman;fontSize=14;fontColor=default;endArrow=classic;" edge="1" parent="1" source="c09KHZvXeTK4_-JIclHb-21" target="c09KHZvXeTK4_-JIclHb-25">
          <mxGeometry relative="1" as="geometry" />
        </mxCell>
        <mxCell id="c09KHZvXeTK4_-JIclHb-27" value="$$v_{c_{1}}$$" style="ellipse;whiteSpace=wrap;html=1;aspect=fixed;fontFamily=Times New Roman;fontSize=14;fontColor=default;" vertex="1" parent="1">
          <mxGeometry x="175.52054794520546" y="380" width="28" height="28" as="geometry" />
        </mxCell>
        <mxCell id="c09KHZvXeTK4_-JIclHb-28" style="edgeStyle=none;shape=connector;rounded=0;orthogonalLoop=1;jettySize=auto;html=1;exitX=0.5;exitY=1;exitDx=0;exitDy=0;entryX=0.5;entryY=0;entryDx=0;entryDy=0;labelBackgroundColor=default;strokeColor=default;align=center;verticalAlign=middle;fontFamily=Times New Roman;fontSize=14;fontColor=default;endArrow=classic;" edge="1" parent="1" source="c09KHZvXeTK4_-JIclHb-21" target="c09KHZvXeTK4_-JIclHb-27">
          <mxGeometry relative="1" as="geometry" />
        </mxCell>
        <mxCell id="c09KHZvXeTK4_-JIclHb-29" value="$$v_{c_{3}}$$" style="ellipse;whiteSpace=wrap;html=1;aspect=fixed;fontFamily=Times New Roman;fontSize=14;fontColor=default;" vertex="1" parent="1">
          <mxGeometry x="222.78082191780823" y="380" width="28" height="28" as="geometry" />
        </mxCell>
        <mxCell id="c09KHZvXeTK4_-JIclHb-30" style="edgeStyle=none;shape=connector;rounded=0;orthogonalLoop=1;jettySize=auto;html=1;exitX=0.5;exitY=1;exitDx=0;exitDy=0;entryX=0.5;entryY=0;entryDx=0;entryDy=0;labelBackgroundColor=default;strokeColor=default;align=center;verticalAlign=middle;fontFamily=Times New Roman;fontSize=14;fontColor=default;endArrow=classic;" edge="1" parent="1" source="c09KHZvXeTK4_-JIclHb-22" target="c09KHZvXeTK4_-JIclHb-29">
          <mxGeometry relative="1" as="geometry" />
        </mxCell>
        <mxCell id="c09KHZvXeTK4_-JIclHb-31" value="$$v_{c_{2}}$$" style="ellipse;whiteSpace=wrap;html=1;aspect=fixed;fontFamily=Times New Roman;fontSize=14;fontColor=default;" vertex="1" parent="1">
          <mxGeometry x="270.04109589041093" y="380" width="28" height="28" as="geometry" />
        </mxCell>
        <mxCell id="c09KHZvXeTK4_-JIclHb-32" style="edgeStyle=none;shape=connector;rounded=0;orthogonalLoop=1;jettySize=auto;html=1;exitX=0.5;exitY=1;exitDx=0;exitDy=0;entryX=0.5;entryY=0;entryDx=0;entryDy=0;labelBackgroundColor=default;strokeColor=default;align=center;verticalAlign=middle;fontFamily=Times New Roman;fontSize=14;fontColor=default;endArrow=classic;" edge="1" parent="1" source="c09KHZvXeTK4_-JIclHb-22" target="c09KHZvXeTK4_-JIclHb-31">
          <mxGeometry relative="1" as="geometry" />
        </mxCell>
        <mxCell id="c09KHZvXeTK4_-JIclHb-33" value="$$v_{c_{1}}$$" style="ellipse;whiteSpace=wrap;html=1;aspect=fixed;fontFamily=Times New Roman;fontSize=14;fontColor=default;" vertex="1" parent="1">
          <mxGeometry x="317.3013698630137" y="380" width="28" height="28" as="geometry" />
        </mxCell>
        <mxCell id="c09KHZvXeTK4_-JIclHb-34" style="edgeStyle=none;shape=connector;rounded=0;orthogonalLoop=1;jettySize=auto;html=1;exitX=0.5;exitY=1;exitDx=0;exitDy=0;entryX=0.5;entryY=0;entryDx=0;entryDy=0;labelBackgroundColor=default;strokeColor=default;align=center;verticalAlign=middle;fontFamily=Times New Roman;fontSize=14;fontColor=default;endArrow=classic;" edge="1" parent="1" source="c09KHZvXeTK4_-JIclHb-22" target="c09KHZvXeTK4_-JIclHb-33">
          <mxGeometry relative="1" as="geometry" />
        </mxCell>
        <mxCell id="c09KHZvXeTK4_-JIclHb-35" value="$$v_{c_{3}}$$" style="ellipse;whiteSpace=wrap;html=1;aspect=fixed;fontFamily=Times New Roman;fontSize=14;fontColor=default;" vertex="1" parent="1">
          <mxGeometry x="364.56164383561645" y="380" width="28" height="28" as="geometry" />
        </mxCell>
        <mxCell id="c09KHZvXeTK4_-JIclHb-36" value="$$v_{c_{2}}$$" style="ellipse;whiteSpace=wrap;html=1;aspect=fixed;fontFamily=Times New Roman;fontSize=14;fontColor=default;" vertex="1" parent="1">
          <mxGeometry x="411.82191780821915" y="380" width="28" height="28" as="geometry" />
        </mxCell>
        <mxCell id="c09KHZvXeTK4_-JIclHb-37" value="$$v_{c_{1}}$$" style="ellipse;whiteSpace=wrap;html=1;aspect=fixed;fontFamily=Times New Roman;fontSize=14;fontColor=default;" vertex="1" parent="1">
          <mxGeometry x="459.0821917808219" y="380" width="28" height="28" as="geometry" />
        </mxCell>
        <mxCell id="c09KHZvXeTK4_-JIclHb-38" value="$$v_{c_{3}}$$" style="ellipse;whiteSpace=wrap;html=1;aspect=fixed;fontFamily=Times New Roman;fontSize=14;fontColor=default;" vertex="1" parent="1">
          <mxGeometry x="506.3424657534247" y="380" width="28" height="28" as="geometry" />
        </mxCell>
        <mxCell id="c09KHZvXeTK4_-JIclHb-39" value="$$v_{c_{2}}$$" style="ellipse;whiteSpace=wrap;html=1;aspect=fixed;fontFamily=Times New Roman;fontSize=14;fontColor=default;" vertex="1" parent="1">
          <mxGeometry x="553.6027397260274" y="380" width="28" height="28" as="geometry" />
        </mxCell>
        <mxCell id="c09KHZvXeTK4_-JIclHb-40" value="$$v_{c_{1}}$$" style="ellipse;whiteSpace=wrap;html=1;aspect=fixed;fontFamily=Times New Roman;fontSize=14;fontColor=default;" vertex="1" parent="1">
          <mxGeometry x="600.8630136986301" y="380" width="28" height="28" as="geometry" />
        </mxCell>
        <mxCell id="c09KHZvXeTK4_-JIclHb-41" value="$$v_{c_{3}}$$" style="ellipse;whiteSpace=wrap;html=1;aspect=fixed;fontFamily=Times New Roman;fontSize=14;fontColor=default;" vertex="1" parent="1">
          <mxGeometry x="648.1232876712329" y="380" width="28" height="28" as="geometry" />
        </mxCell>
        <mxCell id="c09KHZvXeTK4_-JIclHb-42" value="$$v_{c_{2}}$$" style="ellipse;whiteSpace=wrap;html=1;aspect=fixed;fontFamily=Times New Roman;fontSize=14;fontColor=default;" vertex="1" parent="1">
          <mxGeometry x="695.3835616438356" y="380" width="28" height="28" as="geometry" />
        </mxCell>
        <mxCell id="c09KHZvXeTK4_-JIclHb-43" value="$$v_{c_{1}}$$" style="ellipse;whiteSpace=wrap;html=1;aspect=fixed;fontFamily=Times New Roman;fontSize=14;fontColor=default;" vertex="1" parent="1">
          <mxGeometry x="742.6438356164383" y="380" width="28" height="28" as="geometry" />
        </mxCell>
        <mxCell id="c09KHZvXeTK4_-JIclHb-44" style="edgeStyle=none;shape=connector;rounded=0;orthogonalLoop=1;jettySize=auto;html=1;exitX=0.5;exitY=1;exitDx=0;exitDy=0;entryX=0.5;entryY=0;entryDx=0;entryDy=0;labelBackgroundColor=default;strokeColor=default;align=center;verticalAlign=middle;fontFamily=Times New Roman;fontSize=14;fontColor=default;endArrow=classic;" edge="1" parent="1" source="c09KHZvXeTK4_-JIclHb-47" target="c09KHZvXeTK4_-JIclHb-35">
          <mxGeometry relative="1" as="geometry" />
        </mxCell>
        <mxCell id="c09KHZvXeTK4_-JIclHb-45" style="edgeStyle=none;shape=connector;rounded=0;orthogonalLoop=1;jettySize=auto;html=1;exitX=0.5;exitY=1;exitDx=0;exitDy=0;entryX=0.5;entryY=0;entryDx=0;entryDy=0;labelBackgroundColor=default;strokeColor=default;align=center;verticalAlign=middle;fontFamily=Times New Roman;fontSize=14;fontColor=default;endArrow=classic;" edge="1" parent="1" source="c09KHZvXeTK4_-JIclHb-47" target="c09KHZvXeTK4_-JIclHb-36">
          <mxGeometry relative="1" as="geometry" />
        </mxCell>
        <mxCell id="c09KHZvXeTK4_-JIclHb-46" style="edgeStyle=none;shape=connector;rounded=0;orthogonalLoop=1;jettySize=auto;html=1;exitX=0.5;exitY=1;exitDx=0;exitDy=0;entryX=0.5;entryY=0;entryDx=0;entryDy=0;labelBackgroundColor=default;strokeColor=default;align=center;verticalAlign=middle;fontFamily=Times New Roman;fontSize=14;fontColor=default;endArrow=classic;" edge="1" parent="1" source="c09KHZvXeTK4_-JIclHb-47" target="c09KHZvXeTK4_-JIclHb-37">
          <mxGeometry relative="1" as="geometry" />
        </mxCell>
        <mxCell id="c09KHZvXeTK4_-JIclHb-47" value="$$v_{a_{3}}$$" style="ellipse;whiteSpace=wrap;html=1;aspect=fixed;fontFamily=Times New Roman;fontSize=14;fontColor=default;" vertex="1" parent="1">
          <mxGeometry x="410" y="290" width="28" height="28" as="geometry" />
        </mxCell>
        <mxCell id="c09KHZvXeTK4_-JIclHb-48" style="edgeStyle=none;shape=connector;rounded=0;orthogonalLoop=1;jettySize=auto;html=1;exitX=0.5;exitY=1;exitDx=0;exitDy=0;entryX=0.5;entryY=0;entryDx=0;entryDy=0;labelBackgroundColor=default;strokeColor=default;align=center;verticalAlign=middle;fontFamily=Times New Roman;fontSize=14;fontColor=default;endArrow=classic;" edge="1" parent="1" source="c09KHZvXeTK4_-JIclHb-51" target="c09KHZvXeTK4_-JIclHb-38">
          <mxGeometry relative="1" as="geometry" />
        </mxCell>
        <mxCell id="c09KHZvXeTK4_-JIclHb-49" style="edgeStyle=none;shape=connector;rounded=0;orthogonalLoop=1;jettySize=auto;html=1;exitX=0.5;exitY=1;exitDx=0;exitDy=0;entryX=0.5;entryY=0;entryDx=0;entryDy=0;labelBackgroundColor=default;strokeColor=default;align=center;verticalAlign=middle;fontFamily=Times New Roman;fontSize=14;fontColor=default;endArrow=classic;" edge="1" parent="1" source="c09KHZvXeTK4_-JIclHb-51" target="c09KHZvXeTK4_-JIclHb-39">
          <mxGeometry relative="1" as="geometry" />
        </mxCell>
        <mxCell id="c09KHZvXeTK4_-JIclHb-50" style="edgeStyle=none;shape=connector;rounded=0;orthogonalLoop=1;jettySize=auto;html=1;exitX=0.5;exitY=1;exitDx=0;exitDy=0;entryX=0.5;entryY=0;entryDx=0;entryDy=0;labelBackgroundColor=default;strokeColor=default;align=center;verticalAlign=middle;fontFamily=Times New Roman;fontSize=14;fontColor=default;endArrow=classic;" edge="1" parent="1" source="c09KHZvXeTK4_-JIclHb-51" target="c09KHZvXeTK4_-JIclHb-40">
          <mxGeometry relative="1" as="geometry" />
        </mxCell>
        <mxCell id="c09KHZvXeTK4_-JIclHb-51" value="$$v_{a_{4}}$$" style="ellipse;whiteSpace=wrap;html=1;aspect=fixed;fontFamily=Times New Roman;fontSize=14;fontColor=default;" vertex="1" parent="1">
          <mxGeometry x="553.6027397260274" y="290" width="28" height="28" as="geometry" />
        </mxCell>
        <mxCell id="c09KHZvXeTK4_-JIclHb-52" style="edgeStyle=none;shape=connector;rounded=0;orthogonalLoop=1;jettySize=auto;html=1;exitX=0.5;exitY=1;exitDx=0;exitDy=0;entryX=0.5;entryY=0;entryDx=0;entryDy=0;labelBackgroundColor=default;strokeColor=default;align=center;verticalAlign=middle;fontFamily=Times New Roman;fontSize=14;fontColor=default;endArrow=classic;" edge="1" parent="1" source="c09KHZvXeTK4_-JIclHb-55" target="c09KHZvXeTK4_-JIclHb-41">
          <mxGeometry relative="1" as="geometry" />
        </mxCell>
        <mxCell id="c09KHZvXeTK4_-JIclHb-53" style="edgeStyle=none;shape=connector;rounded=0;orthogonalLoop=1;jettySize=auto;html=1;exitX=0.5;exitY=1;exitDx=0;exitDy=0;entryX=0.5;entryY=0;entryDx=0;entryDy=0;labelBackgroundColor=default;strokeColor=default;align=center;verticalAlign=middle;fontFamily=Times New Roman;fontSize=14;fontColor=default;endArrow=classic;" edge="1" parent="1" source="c09KHZvXeTK4_-JIclHb-55" target="c09KHZvXeTK4_-JIclHb-42">
          <mxGeometry relative="1" as="geometry" />
        </mxCell>
        <mxCell id="c09KHZvXeTK4_-JIclHb-54" style="edgeStyle=none;shape=connector;rounded=0;orthogonalLoop=1;jettySize=auto;html=1;exitX=0.5;exitY=1;exitDx=0;exitDy=0;entryX=0.5;entryY=0;entryDx=0;entryDy=0;labelBackgroundColor=default;strokeColor=default;align=center;verticalAlign=middle;fontFamily=Times New Roman;fontSize=14;fontColor=default;endArrow=classic;" edge="1" parent="1" source="c09KHZvXeTK4_-JIclHb-55" target="c09KHZvXeTK4_-JIclHb-43">
          <mxGeometry relative="1" as="geometry" />
        </mxCell>
        <mxCell id="c09KHZvXeTK4_-JIclHb-55" value="$$v_{a_{1003}}$$" style="ellipse;whiteSpace=wrap;html=1;aspect=fixed;fontFamily=Times New Roman;fontSize=14;fontColor=default;" vertex="1" parent="1">
          <mxGeometry x="695.3835616438356" y="290" width="28" height="28" as="geometry" />
        </mxCell>
        <mxCell id="c09KHZvXeTK4_-JIclHb-56" value="......" style="text;html=1;strokeColor=none;fillColor=none;align=center;verticalAlign=middle;whiteSpace=wrap;rounded=0;fontSize=14;fontFamily=Times New Roman;fontColor=default;" vertex="1" parent="1">
          <mxGeometry x="618.2849315068494" y="290" width="56.71232876712329" height="28" as="geometry" />
        </mxCell>
        <mxCell id="c09KHZvXeTK4_-JIclHb-57" value="" style="verticalLabelPosition=bottom;verticalAlign=top;html=1;shape=mxgraph.basic.tick;fontFamily=Times New Roman;fontSize=14;fontColor=#000000;fillColor=#ff0000;" vertex="1" parent="1">
          <mxGeometry x="85" y="420" width="20" height="30" as="geometry" />
        </mxCell>
        <mxCell id="c09KHZvXeTK4_-JIclHb-58" value="$$den(g_3)=238$$" style="text;html=1;strokeColor=none;fillColor=none;align=center;verticalAlign=middle;whiteSpace=wrap;rounded=0;fontSize=16;fontFamily=Times New Roman;fontColor=default;" vertex="1" parent="1">
          <mxGeometry x="209.51999999999998" y="190" width="90" height="40" as="geometry" />
        </mxCell>
        <mxCell id="c09KHZvXeTK4_-JIclHb-59" value="60" style="text;html=1;strokeColor=none;fillColor=none;align=center;verticalAlign=middle;whiteSpace=wrap;rounded=0;fontFamily=Times New Roman;fontSize=14;" vertex="1" parent="1">
          <mxGeometry x="365" y="200" width="60" height="30" as="geometry" />
        </mxCell>
        <mxCell id="c09KHZvXeTK4_-JIclHb-60" value="180" style="text;html=1;strokeColor=none;fillColor=none;align=center;verticalAlign=middle;whiteSpace=wrap;rounded=0;fontFamily=Times New Roman;fontSize=14;" vertex="1" parent="1">
          <mxGeometry x="81" y="290" width="60" height="30" as="geometry" />
        </mxCell>
        <mxCell id="c09KHZvXeTK4_-JIclHb-61" value="139" style="text;html=1;strokeColor=none;fillColor=none;align=center;verticalAlign=middle;whiteSpace=wrap;rounded=0;fontFamily=Times New Roman;fontSize=14;" vertex="1" parent="1">
          <mxGeometry x="222.78" y="290" width="60" height="30" as="geometry" />
        </mxCell>
        <mxCell id="c09KHZvXeTK4_-JIclHb-62" value="113" style="text;html=1;strokeColor=none;fillColor=none;align=center;verticalAlign=middle;whiteSpace=wrap;rounded=0;fontFamily=Times New Roman;fontSize=14;" vertex="1" parent="1">
          <mxGeometry x="364.56" y="290" width="60" height="30" as="geometry" />
        </mxCell>
        <mxCell id="c09KHZvXeTK4_-JIclHb-63" value="62" style="text;html=1;strokeColor=none;fillColor=none;align=center;verticalAlign=middle;whiteSpace=wrap;rounded=0;fontFamily=Times New Roman;fontSize=14;" vertex="1" parent="1">
          <mxGeometry x="508.34000000000003" y="289" width="60" height="30" as="geometry" />
        </mxCell>
        <mxCell id="c09KHZvXeTK4_-JIclHb-64" value="62" style="text;html=1;strokeColor=none;fillColor=none;align=center;verticalAlign=middle;whiteSpace=wrap;rounded=0;fontFamily=Times New Roman;fontSize=14;" vertex="1" parent="1">
          <mxGeometry x="650.12" y="290" width="60" height="30" as="geometry" />
        </mxCell>
        <mxCell id="c09KHZvXeTK4_-JIclHb-65" value="" style="verticalLabelPosition=bottom;verticalAlign=top;html=1;shape=mxgraph.basic.tick;fontFamily=Times New Roman;fontSize=14;fontColor=#000000;fillColor=#ff0000;" vertex="1" parent="1">
          <mxGeometry x="132.26" y="420" width="20" height="30" as="geometry" />
        </mxCell>
        <mxCell id="c09KHZvXeTK4_-JIclHb-67" value="&lt;font face=&quot;Times New Roman&quot;&gt;GLobal MWStar Prune&lt;/font&gt;" style="text;html=1;strokeColor=none;fillColor=none;align=center;verticalAlign=middle;whiteSpace=wrap;rounded=0;" vertex="1" parent="1">
          <mxGeometry x="581.6" y="440" width="135.14" height="30" as="geometry" />
        </mxCell>
        <mxCell id="c09KHZvXeTK4_-JIclHb-68" value="&lt;font face=&quot;Times New Roman&quot;&gt;Local MWstar Prune&lt;/font&gt;" style="text;html=1;strokeColor=none;fillColor=none;align=center;verticalAlign=middle;whiteSpace=wrap;rounded=0;" vertex="1" parent="1">
          <mxGeometry x="425.00000000000006" y="480" width="135.14" height="30" as="geometry" />
        </mxCell>
        <mxCell id="c09KHZvXeTK4_-JIclHb-70" value="" style="shape=curlyBracket;whiteSpace=wrap;html=1;rounded=1;labelPosition=left;verticalLabelPosition=middle;align=right;verticalAlign=middle;rotation=-90;" vertex="1" parent="1">
          <mxGeometry x="628.1700000000001" y="370" width="20" height="120" as="geometry" />
        </mxCell>
        <mxCell id="c09KHZvXeTK4_-JIclHb-71" value="" style="shape=curlyBracket;whiteSpace=wrap;html=1;rounded=1;labelPosition=left;verticalLabelPosition=middle;align=right;verticalAlign=middle;rotation=-90;" vertex="1" parent="1">
          <mxGeometry x="486.34000000000003" y="410" width="20" height="120" as="geometry" />
        </mxCell>
      </root>
    </mxGraphModel>
  </diagram>
</mxfile>
